<?xml version="1.0" encoding="UTF-8"?>
<!DOCTYPE svg PUBLIC "-//W3C//DTD SVG 1.1//EN" "http://www.w3.org/Graphics/SVG/1.1/DTD/svg11.dtd">
<svg xmlns="http://www.w3.org/2000/svg" version="1.1" width="241px" height="1214px" style="shape-rendering:geometricPrecision; text-rendering:geometricPrecision; image-rendering:optimizeQuality; fill-rule:evenodd; clip-rule:evenodd" xmlns:xlink="http://www.w3.org/1999/xlink">
<g><path style="opacity:0.004" fill="#000000" d="M 240.5,19.5 C 240.5,22.1667 240.5,24.8333 240.5,27.5C 235.305,9.38849 223.305,2.22182 204.5,6C 196.268,9.37348 190.935,15.2068 188.5,23.5C 187.883,23.6107 187.383,23.944 187,24.5C 186.502,27.8168 186.335,31.1501 186.5,34.5C 185.667,197.333 185.167,360.333 185,523.5C 181.449,548.697 169.282,568.531 148.5,583C 141.487,587.508 134.153,591.508 126.5,595C 112.897,599.868 99.2302,604.534 85.5,609C 43.7155,629.022 16.8822,661.522 5,706.5C 3.07488,715.957 1.24154,725.29 -0.5,734.5C -0.5,730.833 -0.5,727.167 -0.5,723.5C 5.32722,685.678 22.3272,653.844 50.5,628C 61.3379,619.742 73.0045,612.742 85.5,607C 99.2522,602.527 112.919,597.861 126.5,593C 150.573,582.926 168.073,566.092 179,542.5C 180.76,537.277 182.093,531.944 183,526.5C 183.167,360.832 183.667,195.166 184.5,29.5C 187.865,8.9712 199.865,0.137865 220.5,3C 229.762,5.43442 236.428,10.9344 240.5,19.5 Z"/></g>
<g><path style="opacity:0.004" fill="#6800cc" d="M 240.5,27.5 C 240.5,197.5 240.5,367.5 240.5,537.5C 229.147,590.619 198.147,627.452 147.5,648C 134.833,652.333 122.167,656.667 109.5,661C 80.6988,674.836 63.5322,697.669 58,729.5C 56.8917,735.816 55.8917,742.15 55,748.5C 54.6667,891.833 54.3333,1035.17 54,1178.5C 52.6651,1198.84 41.8317,1208.67 21.5,1208C 11.0411,1205.7 4.37447,1199.53 1.5,1189.5C 2.5,1189.5 3.5,1189.5 4.5,1189.5C 9.98723,1202.24 19.6539,1207.08 33.5,1204C 41.6407,1201.19 47.1407,1195.69 50,1187.5C 50.7599,1183.18 51.4265,1178.85 52,1174.5C 52.3333,1032.83 52.6667,891.167 53,749.5C 54.3031,719.213 65.4698,693.379 86.5,672C 93.1738,666.659 100.507,662.325 108.5,659C 126.555,653.316 144.222,646.649 161.5,639C 201.247,618.252 226.414,586.085 237,542.5C 237.813,537.185 238.479,531.852 239,526.5C 239.667,363.833 239.667,201.167 239,38.5C 237.99,15.1341 226.157,5.63412 203.5,10C 197.527,12.8029 193.527,17.3029 191.5,23.5C 190.5,23.5 189.5,23.5 188.5,23.5C 190.935,15.2068 196.268,9.37348 204.5,6C 223.305,2.22182 235.305,9.38849 240.5,27.5 Z"/></g>
<g><path style="opacity:0.008" fill="#3c0070" d="M 4.5,1189.5 C 4.98869,1188 5.65536,1186.67 6.5,1185.5C 12.3653,1199.26 22.3653,1203.43 36.5,1198C 43.4384,1192.97 47.4384,1186.13 48.5,1177.5C 49.3091,1175.71 49.8091,1173.71 50,1171.5C 50.5,1031.17 50.6667,890.834 50.5,750.5C 50.8697,724.557 58.7031,701.223 74,680.5C 83.2028,669.628 94.3694,661.461 107.5,656C 129.422,649.473 150.422,640.806 170.5,630C 209.949,604.945 231.949,569.111 236.5,522.5C 237.666,362.334 237.833,202.001 237,41.5C 236.809,39.2922 236.309,37.2922 235.5,35.5C 233.512,19.3311 224.512,11.8311 208.5,13C 200.984,15.3509 195.984,20.1842 193.5,27.5C 192.655,26.3285 191.989,24.9952 191.5,23.5C 193.527,17.3029 197.527,12.8029 203.5,10C 226.157,5.63412 237.99,15.1341 239,38.5C 239.667,201.167 239.667,363.833 239,526.5C 238.479,531.852 237.813,537.185 237,542.5C 226.414,586.085 201.247,618.252 161.5,639C 144.222,646.649 126.555,653.316 108.5,659C 100.507,662.325 93.1738,666.659 86.5,672C 65.4698,693.379 54.3031,719.213 53,749.5C 52.6667,891.167 52.3333,1032.83 52,1174.5C 51.4265,1178.85 50.7599,1183.18 50,1187.5C 47.1407,1195.69 41.6407,1201.19 33.5,1204C 19.6539,1207.08 9.98723,1202.24 4.5,1189.5 Z"/></g>
<g><path style="opacity:0.012" fill="#65438d" d="M 235.5,35.5 C 236.49,197.821 236.824,360.154 236.5,522.5C 231.949,569.111 209.949,604.945 170.5,630C 150.422,640.806 129.422,649.473 107.5,656C 94.3694,661.461 83.2028,669.628 74,680.5C 58.7031,701.223 50.8697,724.557 50.5,750.5C 49.8222,892.678 49.1556,1035.01 48.5,1177.5C 47.4384,1186.13 43.4384,1192.97 36.5,1198C 22.3653,1203.43 12.3653,1199.26 6.5,1185.5C 5.1706,1038.69 5.1706,892.027 6.5,745.5C 6.33333,888.5 6.5,1031.5 7,1174.5C 7.40612,1177.74 8.23945,1180.74 9.5,1183.5C 14.0676,1196.28 22.7343,1200.11 35.5,1195C 39.5898,1192.09 42.2564,1188.26 43.5,1183.5C 44.7605,1180.74 45.5939,1177.74 46,1174.5C 46.5,1034.83 46.6667,895.167 46.5,755.5C 47.6132,733.467 53.1132,712.467 63,692.5C 71.1667,677.667 82.6667,666.167 97.5,658C 116.422,650.47 135.422,643.137 154.5,636C 186.781,620.385 210.281,596.219 225,563.5C 228.427,555.127 230.593,546.46 231.5,537.5C 232.314,535.369 232.814,533.036 233,530.5C 233.667,366.5 233.667,202.5 233,38.5C 232.594,35.2578 231.761,32.2578 230.5,29.5C 225.932,16.7204 217.266,12.8871 204.5,18C 200.41,20.9102 197.744,24.7435 196.5,29.5C 195.239,32.2578 194.406,35.2578 194,38.5C 193.5,198.166 193.333,357.833 193.5,517.5C 193.5,518.167 193.167,518.5 192.5,518.5C 192.171,354.805 192.504,191.139 193.5,27.5C 195.984,20.1842 200.984,15.3509 208.5,13C 224.512,11.8311 233.512,19.3311 235.5,35.5 Z"/></g>
<g><path style="opacity:0.844" fill="#864ede" d="M 188.5,23.5 C 189.5,23.5 190.5,23.5 191.5,23.5C 191.989,24.9952 192.655,26.3285 193.5,27.5C 192.504,191.139 192.171,354.805 192.5,518.5C 192.59,527.956 191.59,537.29 189.5,546.5C 186.426,555.04 182.76,563.373 178.5,571.5C 174.808,576.851 171.141,582.185 167.5,587.5C 162.167,592.167 157.167,597.167 152.5,602.5C 144.767,608.233 136.767,613.566 128.5,618.5C 115.201,624.489 101.534,629.489 87.5,633.5C 80.9973,634.759 74.9973,637.093 69.5,640.5C 63.4855,642.835 58.1522,646.169 53.5,650.5C 47.9193,653.413 43.2526,657.413 39.5,662.5C 32.023,670.113 26.023,678.779 21.5,688.5C 17.1491,695.551 14.1491,703.218 12.5,711.5C 8.79213,722.407 6.79213,733.74 6.5,745.5C 5.1706,892.027 5.1706,1038.69 6.5,1185.5C 5.65536,1186.67 4.98869,1188 4.5,1189.5C 3.5,1189.5 2.5,1189.5 1.5,1189.5C 0.833333,1189.17 0.166667,1188.83 -0.5,1188.5C -0.5,1040.83 -0.5,893.167 -0.5,745.5C 1.46219,722.675 7.46219,701.008 17.5,680.5C 22.8037,673.011 27.9703,665.344 33,657.5C 34.9579,657.791 36.4579,656.791 37.5,654.5C 42.1267,651.209 46.46,647.542 50.5,643.5C 54.4394,641.554 58.106,639.221 61.5,636.5C 66.9016,634.128 72.2349,631.795 77.5,629.5C 98.0693,625.37 117.069,617.704 134.5,606.5C 140.687,603.647 146.021,599.647 150.5,594.5C 154.14,591.527 157.473,588.194 160.5,584.5C 164.294,581.047 167.294,577.047 169.5,572.5C 172.505,567.805 175.671,562.472 179,556.5C 180.881,552.693 182.047,548.693 182.5,544.5C 183.976,539.931 185.142,535.265 186,530.5C 186.5,365.167 186.667,199.834 186.5,34.5C 186.335,31.1501 186.502,27.8168 187,24.5C 187.383,23.944 187.883,23.6107 188.5,23.5 Z"/></g>
<g><path style="opacity:0.016" fill="#6b2dac" d="M 196.5,29.5 C 196.326,32.8738 195.826,36.2072 195,39.5C 194.833,199.001 194.333,358.334 193.5,517.5C 193.333,357.833 193.5,198.166 194,38.5C 194.406,35.2578 195.239,32.2578 196.5,29.5 Z"/></g>
<g><path style="opacity:0.016" fill="#6b2dac" d="M 230.5,29.5 C 231.761,32.2578 232.594,35.2578 233,38.5C 233.667,202.5 233.667,366.5 233,530.5C 232.814,533.036 232.314,535.369 231.5,537.5C 232.656,371.511 232.822,205.511 232,39.5C 231.174,36.2072 230.674,32.8738 230.5,29.5 Z"/></g>
<g><path style="opacity:0.004" fill="#6800cc" d="M 186.5,34.5 C 186.667,199.834 186.5,365.167 186,530.5C 185.142,535.265 183.976,539.931 182.5,544.5C 171.232,569.266 152.898,586.766 127.5,597C 112.424,602.136 97.4242,607.47 82.5,613C 52.4783,627.52 30.8117,650.02 17.5,680.5C 7.46219,701.008 1.46219,722.675 -0.5,745.5C -0.5,741.833 -0.5,738.167 -0.5,734.5C 1.24154,725.29 3.07488,715.957 5,706.5C 16.8822,661.522 43.7155,629.022 85.5,609C 99.2302,604.534 112.897,599.868 126.5,595C 134.153,591.508 141.487,587.508 148.5,583C 169.282,568.531 181.449,548.697 185,523.5C 185.167,360.333 185.667,197.333 186.5,34.5 Z"/></g>
<g><path style="opacity:0.008" fill="#9600df" d="M 235.5,35.5 C 236.309,37.2922 236.809,39.2922 237,41.5C 237.833,202.001 237.666,362.334 236.5,522.5C 236.824,360.154 236.49,197.821 235.5,35.5 Z"/></g>
<g><path style="opacity:0.055" fill="#5e2795" d="M 221.5,521.5 C 220.414,550.305 210.081,574.972 190.5,595.5C 190.631,594.761 190.464,594.094 190,593.5C 189.292,594.381 188.458,595.047 187.5,595.5C 196.327,584.809 203.827,573.142 210,560.5C 213.749,551.172 216.082,541.505 217,531.5C 217.667,370.833 217.667,210.167 217,49.5C 214.667,41.5 212.333,41.5 210,49.5C 209.989,208.522 209.322,367.522 208,526.5C 202.786,558.374 186.953,583.541 160.5,602C 150.621,609.051 139.954,614.551 128.5,618.5C 136.767,613.566 144.767,608.233 152.5,602.5C 154.372,603.795 156.038,603.628 157.5,602C 156.833,601.667 156.167,601.333 155.5,601C 182.909,583.572 199.076,558.738 204,526.5C 204.167,366.999 204.667,207.666 205.5,48.5C 205.333,207.167 205.5,365.834 206,524.5C 206.333,366.167 206.667,207.833 207,49.5C 207.601,46.3634 208.601,43.3634 210,40.5C 212.333,37.8333 214.667,37.8333 217,40.5C 218.399,43.3634 219.399,46.3634 220,49.5C 220.167,207.001 220.667,364.334 221.5,521.5 Z"/></g>
<g><path style="opacity:0.059" fill="#5e1e9a" d="M 187.5,595.5 C 175.27,606.629 161.603,615.796 146.5,623C 132.089,628.137 117.756,633.47 103.5,639C 68.7129,654.799 46.5463,681.299 37,718.5C 34.1379,729.006 32.1379,739.673 31,750.5C 30.6667,888.167 30.3333,1025.83 30,1163.5C 27.6667,1171.5 25.3333,1171.5 23,1163.5C 22.3333,1024.5 22.3333,885.5 23,746.5C 23.0237,707.389 37.1904,674.556 65.5,648C 72.4676,642.518 79.8009,637.684 87.5,633.5C 101.534,629.489 115.201,624.489 128.5,618.5C 139.954,614.551 150.621,609.051 160.5,602C 186.953,583.541 202.786,558.374 208,526.5C 209.322,367.522 209.989,208.522 210,49.5C 212.333,41.5 214.667,41.5 217,49.5C 217.667,210.167 217.667,370.833 217,531.5C 216.082,541.505 213.749,551.172 210,560.5C 203.827,573.142 196.327,584.809 187.5,595.5 Z"/></g>
<g><path style="opacity:0.004" fill="#000000" d="M 240.5,537.5 C 240.5,540.5 240.5,543.5 240.5,546.5C 230.29,587.217 206.957,618.05 170.5,639C 151.622,648.627 131.955,656.294 111.5,662C 85.2776,674.231 68.4443,694.398 61,722.5C 59.5053,730.144 58.172,737.811 57,745.5C 56.8333,891.501 56.3333,1037.5 55.5,1183.5C 52.1349,1204.03 40.1349,1212.86 19.5,1210C 10.2384,1207.57 3.57172,1202.07 -0.5,1193.5C -0.5,1191.83 -0.5,1190.17 -0.5,1188.5C 0.166667,1188.83 0.833333,1189.17 1.5,1189.5C 4.37447,1199.53 11.0411,1205.7 21.5,1208C 41.8317,1208.67 52.6651,1198.84 54,1178.5C 54.3333,1035.17 54.6667,891.833 55,748.5C 55.8917,742.15 56.8917,735.816 58,729.5C 63.5322,697.669 80.6988,674.836 109.5,661C 122.167,656.667 134.833,652.333 147.5,648C 198.147,627.452 229.147,590.619 240.5,537.5 Z"/></g>
<g><path style="opacity:0.008" fill="#44017a" d="M 182.5,544.5 C 182.047,548.693 180.881,552.693 179,556.5C 175.671,562.472 172.505,567.805 169.5,572.5C 157.2,584.949 142.867,594.449 126.5,601C 105.293,606.609 85.2926,614.942 66.5,626C 54.9795,633.688 45.3128,643.188 37.5,654.5C 36.4579,656.791 34.9579,657.791 33,657.5C 27.9703,665.344 22.8037,673.011 17.5,680.5C 30.8117,650.02 52.4783,627.52 82.5,613C 97.4242,607.47 112.424,602.136 127.5,597C 152.898,586.766 171.232,569.266 182.5,544.5 Z"/></g>
<g><path style="opacity:0.012" fill="#6a4694" d="M 169.5,572.5 C 167.294,577.047 164.294,581.047 160.5,584.5C 151.716,590.733 142.383,596.233 132.5,601C 114.567,607.087 96.9,613.754 79.5,621C 68.6102,627.09 58.9435,634.59 50.5,643.5C 46.46,647.542 42.1267,651.209 37.5,654.5C 45.3128,643.188 54.9795,633.688 66.5,626C 85.2926,614.942 105.293,606.609 126.5,601C 142.867,594.449 157.2,584.949 169.5,572.5 Z"/></g>
<g><path style="opacity:0.02" fill="#5f2798" d="M 160.5,584.5 C 157.473,588.194 154.14,591.527 150.5,594.5C 131.063,604.706 110.729,612.873 89.5,619C 79.2611,623.607 69.9278,629.44 61.5,636.5C 58.106,639.221 54.4394,641.554 50.5,643.5C 58.9435,634.59 68.6102,627.09 79.5,621C 96.9,613.754 114.567,607.087 132.5,601C 142.383,596.233 151.716,590.733 160.5,584.5 Z"/></g>
<g><path style="opacity:0.055" fill="#5f2897" d="M 190.5,595.5 C 175.517,611.52 157.517,623.353 136.5,631C 116.813,636.11 98.4799,644.11 81.5,655C 53.824,678.181 38.6573,708.015 36,744.5C 35.6667,884.5 35.3333,1024.5 35,1164.5C 34.5483,1167.88 33.8816,1171.21 33,1174.5C 28.6667,1179.83 24.3333,1179.83 20,1174.5C 19.1184,1171.21 18.4517,1167.88 18,1164.5C 17.0262,1023.49 17.3596,882.488 19,741.5C 21.5242,700.451 38.3576,666.785 69.5,640.5C 74.9973,637.093 80.9973,634.759 87.5,633.5C 79.8009,637.684 72.4676,642.518 65.5,648C 37.1904,674.556 23.0237,707.389 23,746.5C 22.3333,885.5 22.3333,1024.5 23,1163.5C 25.3333,1171.5 27.6667,1171.5 30,1163.5C 30.3333,1025.83 30.6667,888.167 31,750.5C 32.1379,739.673 34.1379,729.006 37,718.5C 46.5463,681.299 68.7129,654.799 103.5,639C 117.756,633.47 132.089,628.137 146.5,623C 161.603,615.796 175.27,606.629 187.5,595.5C 188.458,595.047 189.292,594.381 190,593.5C 190.464,594.094 190.631,594.761 190.5,595.5 Z"/></g>
<g><path style="opacity:0.024" fill="#5b099b" d="M 150.5,594.5 C 146.021,599.647 140.687,603.647 134.5,606.5C 117.268,611.967 100.268,618.134 83.5,625C 80.7335,626.431 78.7335,627.931 77.5,629.5C 72.2349,631.795 66.9016,634.128 61.5,636.5C 69.9278,629.44 79.2611,623.607 89.5,619C 110.729,612.873 131.063,604.706 150.5,594.5 Z"/></g>
<g><path style="opacity:0.035" fill="#602997" d="M 134.5,606.5 C 117.069,617.704 98.0693,625.37 77.5,629.5C 78.7335,627.931 80.7335,626.431 83.5,625C 100.268,618.134 117.268,611.967 134.5,606.5 Z"/></g>
<g><path style="opacity:0.02" fill="#59248e" d="M 230.5,29.5 C 230.674,32.8738 231.174,36.2072 232,39.5C 232.822,205.511 232.656,371.511 231.5,537.5C 230.593,546.46 228.427,555.127 225,563.5C 210.281,596.219 186.781,620.385 154.5,636C 135.422,643.137 116.422,650.47 97.5,658C 82.6667,666.167 71.1667,677.667 63,692.5C 53.1132,712.467 47.6132,733.467 46.5,755.5C 45.6669,894.666 45.1669,1034 45,1173.5C 44.1744,1176.79 43.6744,1180.13 43.5,1183.5C 42.2564,1188.26 39.5898,1192.09 35.5,1195C 22.7343,1200.11 14.0676,1196.28 9.5,1183.5C 9.32564,1180.13 8.82564,1176.79 8,1173.5C 7.33333,1030.83 7.33333,888.167 8,745.5C 8.98816,734.084 10.4882,722.751 12.5,711.5C 14.1491,703.218 17.1491,695.551 21.5,688.5C 13.6794,709.772 9.51268,731.772 9,754.5C 8.33333,892.167 8.33333,1029.83 9,1167.5C 8.30114,1177.23 11.4678,1185.4 18.5,1192C 29.8648,1196.22 37.6981,1192.72 42,1181.5C 43.0607,1176.9 43.7273,1172.23 44,1167.5C 44.3333,1027.5 44.6667,887.5 45,747.5C 46.4793,715.387 58.646,688.221 81.5,666C 88.6668,660.58 96.3335,655.913 104.5,652C 124.389,645.704 143.722,638.038 162.5,629C 191.952,612.218 212.785,588.052 225,556.5C 227.297,549.312 228.964,541.978 230,534.5C 231.648,371.514 231.982,208.514 231,45.5C 231.211,38.345 229.545,31.6783 226,25.5C 220.296,19.4016 213.462,17.9016 205.5,21C 200.996,24.8401 198.162,29.6734 197,35.5C 195.681,198.482 195.014,361.482 195,524.5C 194.355,532.253 192.522,539.587 189.5,546.5C 191.59,537.29 192.59,527.956 192.5,518.5C 193.167,518.5 193.5,518.167 193.5,517.5C 194.333,358.334 194.833,199.001 195,39.5C 195.826,36.2072 196.326,32.8738 196.5,29.5C 197.744,24.7435 200.41,20.9102 204.5,18C 217.266,12.8871 225.932,16.7204 230.5,29.5 Z"/></g>
<g><path style="opacity:0.024" fill="#5d07a0" d="M 21.5,688.5 C 26.023,678.779 32.023,670.113 39.5,662.5C 36.9403,667.277 34.107,671.944 31,676.5C 28.5965,680.635 26.7632,684.968 25.5,689.5C 21.6065,697.007 18.7732,705.007 17,713.5C 14.0908,727.349 12.4241,741.349 12,755.5C 11.3333,892.5 11.3333,1029.5 12,1166.5C 12.1805,1169.69 12.6805,1172.69 13.5,1175.5C 15.2418,1186.75 21.5751,1190.92 32.5,1188C 36.783,1184.93 39.1164,1180.77 39.5,1175.5C 40.3195,1172.69 40.8195,1169.69 41,1166.5C 41.3333,1027.17 41.6667,887.833 42,748.5C 42.9603,738.406 44.4603,728.406 46.5,718.5C 53.8905,692.555 68.5572,671.722 90.5,656C 95.8333,653.333 101.167,650.667 106.5,648C 122.064,642.923 137.398,637.257 152.5,631C 181.015,616.984 202.349,595.818 216.5,567.5C 224.061,553.226 227.894,537.893 228,521.5C 228.667,363.167 228.667,204.833 228,46.5C 227.819,43.3054 227.319,40.3054 226.5,37.5C 224.758,26.2478 218.425,22.0812 207.5,25C 203.217,28.0653 200.884,32.2319 200.5,37.5C 199.681,40.3054 199.181,43.3054 199,46.5C 198.667,205.5 198.333,364.5 198,523.5C 197.153,530.567 195.986,537.567 194.5,544.5C 191.826,550.983 188.659,557.317 185,563.5C 183.054,566.42 180.887,569.087 178.5,571.5C 182.76,563.373 186.426,555.04 189.5,546.5C 192.522,539.587 194.355,532.253 195,524.5C 195.014,361.482 195.681,198.482 197,35.5C 198.162,29.6734 200.996,24.8401 205.5,21C 213.462,17.9016 220.296,19.4016 226,25.5C 229.545,31.6783 231.211,38.345 231,45.5C 231.982,208.514 231.648,371.514 230,534.5C 228.964,541.978 227.297,549.312 225,556.5C 212.785,588.052 191.952,612.218 162.5,629C 143.722,638.038 124.389,645.704 104.5,652C 96.3335,655.913 88.6668,660.58 81.5,666C 58.646,688.221 46.4793,715.387 45,747.5C 44.6667,887.5 44.3333,1027.5 44,1167.5C 43.7273,1172.23 43.0607,1176.9 42,1181.5C 37.6981,1192.72 29.8648,1196.22 18.5,1192C 11.4678,1185.4 8.30114,1177.23 9,1167.5C 8.33333,1029.83 8.33333,892.167 9,754.5C 9.51268,731.772 13.6794,709.772 21.5,688.5 Z"/></g>
<g><path style="opacity:0.031" fill="#5f3391" d="M 25.5,689.5 C 17.4188,711.409 13.2522,734.075 13,757.5C 12.183,896.842 12.3497,1036.18 13.5,1175.5C 12.6805,1172.69 12.1805,1169.69 12,1166.5C 11.3333,1029.5 11.3333,892.5 12,755.5C 12.4241,741.349 14.0908,727.349 17,713.5C 18.7732,705.007 21.6065,697.007 25.5,689.5 Z"/></g>
<g><path style="opacity:0.031" fill="#5f3391" d="M 226.5,37.5 C 227.319,40.3054 227.819,43.3054 228,46.5C 228.667,204.833 228.667,363.167 228,521.5C 227.894,537.893 224.061,553.226 216.5,567.5C 223.124,552.218 226.624,536.218 227,519.5C 227.819,358.825 227.653,198.158 226.5,37.5 Z"/></g>
<g><path style="opacity:0.031" fill="#5f3391" d="M 200.5,37.5 C 199.681,200.491 199.181,363.491 199,526.5C 198.307,532.828 196.807,538.828 194.5,544.5C 195.986,537.567 197.153,530.567 198,523.5C 198.333,364.5 198.667,205.5 199,46.5C 199.181,43.3054 199.681,40.3054 200.5,37.5 Z"/></g>
<g><path style="opacity:0.035" fill="#642a9e" d="M 226.5,37.5 C 227.653,198.158 227.819,358.825 227,519.5C 226.624,536.218 223.124,552.218 216.5,567.5C 202.349,595.818 181.015,616.984 152.5,631C 137.398,637.257 122.064,642.923 106.5,648C 101.167,650.667 95.8333,653.333 90.5,656C 68.5572,671.722 53.8905,692.555 46.5,718.5C 43.4284,727.113 41.5951,736.113 41,745.5C 40.8174,888.842 40.3174,1032.18 39.5,1175.5C 39.1164,1180.77 36.783,1184.93 32.5,1188C 21.5751,1190.92 15.2418,1186.75 13.5,1175.5C 12.3497,1036.18 12.183,896.842 13,757.5C 13.2522,734.075 17.4188,711.409 25.5,689.5C 26.7632,684.968 28.5965,680.635 31,676.5C 34.107,671.944 36.9403,667.277 39.5,662.5C 43.2526,657.413 47.9193,653.413 53.5,650.5C 27.5655,680.45 14.7322,715.45 15,755.5C 14.3333,892.167 14.3333,1028.83 15,1165.5C 14.9477,1171.84 16.781,1177.51 20.5,1182.5C 29.5496,1186.22 35.0496,1183.22 37,1173.5C 37.3333,1170.83 37.6667,1168.17 38,1165.5C 38.3333,1026.5 38.6667,887.5 39,748.5C 40.5548,711.896 55.0548,681.73 82.5,658C 89.0114,653.241 96.0114,649.241 103.5,646C 119.655,640.393 135.655,634.393 151.5,628C 196.256,605.98 220.756,570.147 225,520.5C 225.667,362.833 225.667,205.167 225,47.5C 225.052,41.1585 223.219,35.4919 219.5,30.5C 210.45,26.777 204.95,29.777 203,39.5C 202.667,42.1667 202.333,44.8333 202,47.5C 201.667,206.167 201.333,364.833 201,523.5C 198.487,549.531 187.321,570.865 167.5,587.5C 171.141,582.185 174.808,576.851 178.5,571.5C 180.887,569.087 183.054,566.42 185,563.5C 188.659,557.317 191.826,550.983 194.5,544.5C 196.807,538.828 198.307,532.828 199,526.5C 199.181,363.491 199.681,200.491 200.5,37.5C 200.884,32.2319 203.217,28.0653 207.5,25C 218.425,22.0812 224.758,26.2478 226.5,37.5 Z"/></g>
<g><path style="opacity:0.031" fill="#5f3391" d="M 46.5,718.5 C 44.4603,728.406 42.9603,738.406 42,748.5C 41.6667,887.833 41.3333,1027.17 41,1166.5C 40.8195,1169.69 40.3195,1172.69 39.5,1175.5C 40.3174,1032.18 40.8174,888.842 41,745.5C 41.5951,736.113 43.4284,727.113 46.5,718.5 Z"/></g>
<g><path style="opacity:0.016" fill="#6b2daa" d="M 12.5,711.5 C 10.4882,722.751 8.98816,734.084 8,745.5C 7.33333,888.167 7.33333,1030.83 8,1173.5C 8.82564,1176.79 9.32564,1180.13 9.5,1183.5C 8.23945,1180.74 7.40612,1177.74 7,1174.5C 6.5,1031.5 6.33333,888.5 6.5,745.5C 6.79213,733.74 8.79213,722.407 12.5,711.5 Z"/></g>
<g><path style="opacity:0.043" fill="#5d159a" d="M 53.5,650.5 C 58.1522,646.169 63.4855,642.835 69.5,640.5C 38.3576,666.785 21.5242,700.451 19,741.5C 17.3596,882.488 17.0262,1023.49 18,1164.5C 18.4517,1167.88 19.1184,1171.21 20,1174.5C 24.3333,1179.83 28.6667,1179.83 33,1174.5C 33.8816,1171.21 34.5483,1167.88 35,1164.5C 35.3333,1024.5 35.6667,884.5 36,744.5C 38.6573,708.015 53.824,678.181 81.5,655C 98.4799,644.11 116.813,636.11 136.5,631C 157.517,623.353 175.517,611.52 190.5,595.5C 210.081,574.972 220.414,550.305 221.5,521.5C 222.665,363.903 222.832,206.236 222,48.5C 221.548,45.1228 220.882,41.7895 220,38.5C 215.667,33.1667 211.333,33.1667 207,38.5C 205.957,41.7568 205.457,45.0901 205.5,48.5C 204.667,207.666 204.167,366.999 204,526.5C 199.076,558.738 182.909,583.572 155.5,601C 156.167,601.333 156.833,601.667 157.5,602C 156.038,603.628 154.372,603.795 152.5,602.5C 157.167,597.167 162.167,592.167 167.5,587.5C 187.321,570.865 198.487,549.531 201,523.5C 201.333,364.833 201.667,206.167 202,47.5C 202.333,44.8333 202.667,42.1667 203,39.5C 204.95,29.777 210.45,26.777 219.5,30.5C 223.219,35.4919 225.052,41.1585 225,47.5C 225.667,205.167 225.667,362.833 225,520.5C 220.756,570.147 196.256,605.98 151.5,628C 135.655,634.393 119.655,640.393 103.5,646C 96.0114,649.241 89.0114,653.241 82.5,658C 55.0548,681.73 40.5548,711.896 39,748.5C 38.6667,887.5 38.3333,1026.5 38,1165.5C 37.6667,1168.17 37.3333,1170.83 37,1173.5C 35.0496,1183.22 29.5496,1186.22 20.5,1182.5C 16.781,1177.51 14.9477,1171.84 15,1165.5C 14.3333,1028.83 14.3333,892.167 15,755.5C 14.7322,715.45 27.5655,680.45 53.5,650.5 Z"/></g>
<g><path style="opacity:0.051" fill="#642b9e" d="M 221.5,521.5 C 220.667,364.334 220.167,207.001 220,49.5C 219.399,46.3634 218.399,43.3634 217,40.5C 214.667,37.8333 212.333,37.8333 210,40.5C 208.601,43.3634 207.601,46.3634 207,49.5C 206.667,207.833 206.333,366.167 206,524.5C 205.5,365.834 205.333,207.167 205.5,48.5C 205.457,45.0901 205.957,41.7568 207,38.5C 211.333,33.1667 215.667,33.1667 220,38.5C 220.882,41.7895 221.548,45.1228 222,48.5C 222.832,206.236 222.665,363.903 221.5,521.5 Z"/></g>
<g><path style="opacity:0.008" fill="#9600df" d="M 50.5,750.5 C 50.6667,890.834 50.5,1031.17 50,1171.5C 49.8091,1173.71 49.3091,1175.71 48.5,1177.5C 49.1556,1035.01 49.8222,892.678 50.5,750.5 Z"/></g>
<g><path style="opacity:0.016" fill="#6b2dac" d="M 46.5,755.5 C 46.6667,895.167 46.5,1034.83 46,1174.5C 45.5939,1177.74 44.7605,1180.74 43.5,1183.5C 43.6744,1180.13 44.1744,1176.79 45,1173.5C 45.1669,1034 45.6669,894.666 46.5,755.5 Z"/></g>
</svg>
