<?xml version="1.0" encoding="UTF-8"?>
<!DOCTYPE svg PUBLIC "-//W3C//DTD SVG 1.1//EN" "http://www.w3.org/Graphics/SVG/1.1/DTD/svg11.dtd">
<svg xmlns="http://www.w3.org/2000/svg" version="1.1" width="1142px" height="459px" style="shape-rendering:geometricPrecision; text-rendering:geometricPrecision; image-rendering:optimizeQuality; fill-rule:evenodd; clip-rule:evenodd" xmlns:xlink="http://www.w3.org/1999/xlink">
<g><path style="opacity:0.004" fill="#000000" d="M 1025.5,-0.5 C 1028.5,-0.5 1031.5,-0.5 1034.5,-0.5C 1002.99,5.0888 975.656,18.9221 952.5,41C 940.851,52.1698 930.017,64.0032 920,76.5C 896.667,107.833 873.333,139.167 850,170.5C 838.043,185.46 825.709,200.126 813,214.5C 783.28,245.598 746.78,260.598 703.5,259.5C 693.145,259.425 682.812,258.925 672.5,258C 645.218,254.805 617.884,252.138 590.5,250C 540.444,246.246 492.11,253.579 445.5,272C 417.276,284.932 391.609,301.598 368.5,322C 346.591,343.6 323.924,364.267 300.5,384C 275.982,401.477 248.982,406.811 219.5,400C 188.99,393.41 159.657,383.41 131.5,370C 103.035,356.271 75.3681,341.271 48.5,325C 44.3707,323.051 40.0373,321.884 35.5,321.5C 33.6316,320.737 31.9649,319.737 30.5,318.5C 36.7343,319.059 42.7343,320.559 48.5,323C 84.5703,345.203 122.237,364.536 161.5,381C 186.321,390.955 211.988,397.622 238.5,401C 260.674,402.125 280.674,396.125 298.5,383C 305.167,377.667 311.833,372.333 318.5,367C 336.531,349.301 354.864,331.968 373.5,315C 428.966,269.228 492.966,246.728 565.5,247.5C 611.731,250.383 657.898,254.05 704,258.5C 743.288,258.857 777.121,245.69 805.5,219C 822.162,201.152 837.996,182.652 853,163.5C 872.281,136.552 891.947,109.885 912,83.5C 927.783,63.3834 945.283,44.8834 964.5,28C 982.859,14.1522 1003.19,4.6522 1025.5,-0.5 Z"/></g>
<g><path style="opacity:0.004" fill="#6f08c1" d="M 1034.5,-0.5 C 1037.5,-0.5 1040.5,-0.5 1043.5,-0.5C 1027.77,1.74416 1012.77,6.41083 998.5,13.5C 986.093,18.5377 974.759,25.371 964.5,34C 946.559,49.6046 930.392,66.7713 916,85.5C 885.879,127.4 854.546,168.4 822,208.5C 805.678,226.882 786.512,241.216 764.5,251.5C 745.701,258.513 725.868,261.847 705,261.5C 664.464,258.454 623.964,254.954 583.5,251C 534.15,247.846 487.483,256.346 443.5,276.5C 427.137,283.181 411.804,291.681 397.5,302C 389.5,308.333 381.5,314.667 373.5,321C 353.167,340 332.833,359 312.5,378C 302.103,385.916 291.103,392.749 279.5,398.5C 257.805,405.624 235.805,406.457 213.5,401C 192.817,396.421 173.817,390.421 156.5,383C 148.437,379.925 140.437,376.758 132.5,373.5C 129.249,371.043 125.582,369.376 121.5,368.5C 98.5827,357.041 76.2493,344.541 54.5,331C 51.0288,328.928 47.3621,327.428 43.5,326.5C 40.53,325.347 37.8633,323.68 35.5,321.5C 40.0373,321.884 44.3707,323.051 48.5,325C 75.3681,341.271 103.035,356.271 131.5,370C 159.657,383.41 188.99,393.41 219.5,400C 248.982,406.811 275.982,401.477 300.5,384C 323.924,364.267 346.591,343.6 368.5,322C 391.609,301.598 417.276,284.932 445.5,272C 492.11,253.579 540.444,246.246 590.5,250C 617.884,252.138 645.218,254.805 672.5,258C 682.812,258.925 693.145,259.425 703.5,259.5C 746.78,260.598 783.28,245.598 813,214.5C 825.709,200.126 838.043,185.46 850,170.5C 873.333,139.167 896.667,107.833 920,76.5C 930.017,64.0032 940.851,52.1698 952.5,41C 975.656,18.9221 1002.99,5.0888 1034.5,-0.5 Z"/></g>
<g><path style="opacity:0.937" fill="#8d49d7" d="M 1043.5,-0.5 C 1050.83,-0.5 1058.17,-0.5 1065.5,-0.5C 1077.53,1.14091 1089.53,3.64091 1101.5,7C 1107.18,8.49894 1112.51,10.6656 1117.5,13.5C 1117.5,14.8333 1117.5,16.1667 1117.5,17.5C 1115.83,17.5 1114.17,17.5 1112.5,17.5C 1083.63,5.18137 1053.96,2.68137 1023.5,10C 1016.69,11.9834 1010.36,14.8168 1004.5,18.5C 995.448,22.6918 987.448,28.3584 980.5,35.5C 969.467,44.1988 959.801,54.1988 951.5,65.5C 944.865,72.9754 938.365,80.6421 932,88.5C 910.385,118.449 888.385,148.115 866,177.5C 855.035,190.965 843.535,203.965 831.5,216.5C 821.684,226.326 811.017,234.993 799.5,242.5C 787.976,249.263 775.976,254.93 763.5,259.5C 754.508,261.665 745.508,263.665 736.5,265.5C 722.534,266.998 708.534,267.498 694.5,267C 662.781,264.587 631.114,261.587 599.5,258C 565.176,254.639 531.176,256.639 497.5,264C 493.573,264.724 489.906,265.891 486.5,267.5C 475.833,269.608 465.833,273.275 456.5,278.5C 437.679,286.019 420.679,296.352 405.5,309.5C 403.137,311.857 400.47,313.857 397.5,315.5C 379.127,331.698 361.127,348.532 343.5,366C 332.985,374.749 322.319,383.249 311.5,391.5C 300.819,397.343 289.819,402.343 278.5,406.5C 254.831,411.789 231.165,411.622 207.5,406C 192.337,402.333 177.337,398.167 162.5,393.5C 120.241,376.704 79.5741,356.704 40.5,333.5C 39.5637,332.026 38.2303,331.026 36.5,330.5C 34.0443,328.132 31.0443,327.132 27.5,327.5C 29.7369,325.589 29.0703,324.256 25.5,323.5C 25.1667,322.5 24.5,321.833 23.5,321.5C 23.5,320.833 23.5,320.167 23.5,319.5C 25.4503,317.247 27.7837,316.914 30.5,318.5C 31.9649,319.737 33.6316,320.737 35.5,321.5C 37.8633,323.68 40.53,325.347 43.5,326.5C 56.1045,334.81 69.1045,342.644 82.5,350C 95.2904,356.73 108.29,362.896 121.5,368.5C 124.751,370.957 128.418,372.624 132.5,373.5C 140.437,376.758 148.437,379.925 156.5,383C 173.817,390.421 192.817,396.421 213.5,401C 235.805,406.457 257.805,405.624 279.5,398.5C 290.93,395.54 300.764,390.54 309,383.5C 309.914,384.654 310.747,384.487 311.5,383C 310.66,381.334 311.16,381.167 313,382.5C 315.326,380.934 317.492,379.268 319.5,377.5C 325.803,372.342 332.136,367.175 338.5,362C 354.366,346.966 370.033,331.8 385.5,316.5C 388.582,314.925 391.249,312.758 393.5,310C 392.66,308.334 393.16,308.167 395,309.5C 396.758,308.531 397.258,307.364 396.5,306C 411.448,295.814 427.115,285.98 443.5,276.5C 487.483,256.346 534.15,247.846 583.5,251C 623.964,254.954 664.464,258.454 705,261.5C 725.868,261.847 745.701,258.513 764.5,251.5C 772.591,249.457 780.258,246.29 787.5,242C 794.024,238.636 800.357,234.469 806.5,229.5C 816.454,222.213 825.454,213.88 833.5,204.5C 841.837,196.327 849.671,187.661 857,178.5C 886.441,137.951 916.608,97.9511 947.5,58.5C 955.139,50.5265 962.806,42.5265 970.5,34.5C 972.233,33.9924 972.566,33.159 971.5,32C 972.449,31.3828 973.282,31.5494 974,32.5C 975.758,31.5305 976.258,30.3639 975.5,29C 983.061,24.3787 990.728,19.212 998.5,13.5C 1012.77,6.41083 1027.77,1.74416 1043.5,-0.5 Z"/></g>
<g><path style="opacity:0.004" fill="#6f08c1" d="M 1065.5,-0.5 C 1069.17,-0.5 1072.83,-0.5 1076.5,-0.5C 1086.05,1.57983 1095.72,3.74649 1105.5,6C 1120.4,8.3552 1130.56,16.5219 1136,30.5C 1138.62,51.3773 1129.45,62.3773 1108.5,63.5C 1094.4,61.6415 1080.4,59.1415 1066.5,56C 1043.21,53.4044 1022.21,59.0711 1003.5,73C 987.963,85.5368 974.129,99.7035 962,115.5C 941.614,142.218 921.614,169.218 902,196.5C 889.712,212.456 877.046,228.123 864,243.5C 842.527,268.139 817.027,287.306 787.5,301C 755.321,313.523 721.988,318.523 687.5,316C 659.789,313.796 632.123,311.129 604.5,308C 565.21,303.568 526.543,306.568 488.5,317C 461.497,325.718 437.163,339.051 415.5,357C 397.531,373.301 379.865,389.967 362.5,407C 343.526,425.29 321.859,439.624 297.5,450C 287.252,453.642 276.919,456.476 266.5,458.5C 251.833,458.5 237.167,458.5 222.5,458.5C 190.195,453.086 158.862,443.919 128.5,431C 91.1935,415.183 55.5268,396.516 21.5,375C 4.06467,362.816 0.231338,347.316 10,328.5C 13.6062,324.447 18.1062,322.114 23.5,321.5C 24.5,321.833 25.1667,322.5 25.5,323.5C 9.92191,328.631 4.42191,339.298 9,355.5C 11.98,361.291 15.8134,366.457 20.5,371C 65.7576,399.961 113.758,423.628 164.5,442C 190.743,451.144 217.743,456.311 245.5,457.5C 278.352,456.383 308.019,446.217 334.5,427C 360.731,405.108 386.064,382.108 410.5,358C 455.683,320.602 507.849,302.435 567,303.5C 603.253,305.642 639.42,308.809 675.5,313C 735.515,320.671 788.848,305.671 835.5,268C 862.28,242.235 886.447,214.402 908,184.5C 928.18,155.317 949.513,126.984 972,99.5C 981.897,88.9335 992.397,79.1001 1003.5,70C 1022.75,56.5219 1044.08,51.1885 1067.5,54C 1080.38,56.9702 1093.38,59.1368 1106.5,60.5C 1122.34,61.1623 1131.34,53.6623 1133.5,38C 1132.73,26.751 1127.4,18.5843 1117.5,13.5C 1112.51,10.6656 1107.18,8.49894 1101.5,7C 1089.53,3.64091 1077.53,1.14091 1065.5,-0.5 Z"/></g>
<g><path style="opacity:0.004" fill="#000000" d="M 1076.5,-0.5 C 1079.83,-0.5 1083.17,-0.5 1086.5,-0.5C 1097.6,1.86234 1108.6,5.029 1119.5,9C 1136.41,17.6495 1142.24,31.1495 1137,49.5C 1131.06,60.8941 1121.56,66.2275 1108.5,65.5C 1095.35,63.7969 1082.35,61.2969 1069.5,58C 1045.94,54.5571 1024.6,59.8905 1005.5,74C 991,85.8333 977.833,99 966,113.5C 945.614,140.218 925.614,167.218 906,194.5C 892.385,212.717 878.052,230.383 863,247.5C 814.449,301.168 753.949,324.334 681.5,317C 654.139,314.627 626.806,311.96 599.5,309C 547.136,302.716 497.469,311.383 450.5,335C 433.369,345.461 417.369,357.461 402.5,371C 381.364,392.81 359.031,413.143 335.5,432C 316.974,444.435 296.974,453.269 275.5,458.5C 272.5,458.5 269.5,458.5 266.5,458.5C 276.919,456.476 287.252,453.642 297.5,450C 321.859,439.624 343.526,425.29 362.5,407C 379.865,389.967 397.531,373.301 415.5,357C 437.163,339.051 461.497,325.718 488.5,317C 526.543,306.568 565.21,303.568 604.5,308C 632.123,311.129 659.789,313.796 687.5,316C 721.988,318.523 755.321,313.523 787.5,301C 817.027,287.306 842.527,268.139 864,243.5C 877.046,228.123 889.712,212.456 902,196.5C 921.614,169.218 941.614,142.218 962,115.5C 974.129,99.7035 987.963,85.5368 1003.5,73C 1022.21,59.0711 1043.21,53.4044 1066.5,56C 1080.4,59.1415 1094.4,61.6415 1108.5,63.5C 1129.45,62.3773 1138.62,51.3773 1136,30.5C 1130.56,16.5219 1120.4,8.3552 1105.5,6C 1095.72,3.74649 1086.05,1.57983 1076.5,-0.5 Z"/></g>
<g><path style="opacity:0.031" fill="#64318d" d="M 1086.5,45.5 C 1093.1,46.9867 1099.76,47.4867 1106.5,47C 1116.03,43.7671 1118.53,37.6004 1114,28.5C 1106.69,22.1683 1098.19,18.3349 1088.5,17C 1066.86,12.5466 1045.19,12.3799 1023.5,16.5C 1028.54,14.5982 1033.87,13.4315 1039.5,13C 1061.34,10.8963 1082.67,13.2297 1103.5,20C 1111.84,22.5076 1116.84,28.0076 1118.5,36.5C 1116.24,45.142 1110.58,49.142 1101.5,48.5C 1096.16,48.5769 1091.16,47.5769 1086.5,45.5 Z"/></g>
<g><path style="opacity:0.008" fill="#490575" d="M 998.5,13.5 C 990.728,19.212 983.061,24.3787 975.5,29C 976.258,30.3639 975.758,31.5305 974,32.5C 973.282,31.5494 972.449,31.3828 971.5,32C 972.566,33.159 972.233,33.9924 970.5,34.5C 955.926,46.2382 942.426,59.2382 930,73.5C 905.603,104.631 881.936,136.297 859,168.5C 848.76,180.65 838.76,192.983 829,205.5C 821.833,214 814,221.833 805.5,229C 805.728,229.399 806.062,229.565 806.5,229.5C 800.357,234.469 794.024,238.636 787.5,242C 780.258,246.29 772.591,249.457 764.5,251.5C 786.512,241.216 805.678,226.882 822,208.5C 854.546,168.4 885.879,127.4 916,85.5C 930.392,66.7713 946.559,49.6046 964.5,34C 974.759,25.371 986.093,18.5377 998.5,13.5 Z"/></g>
<g><path style="opacity:0.008" fill="#4b0479" d="M 1117.5,13.5 C 1127.4,18.5843 1132.73,26.751 1133.5,38C 1131.34,53.6623 1122.34,61.1623 1106.5,60.5C 1093.38,59.1368 1080.38,56.9702 1067.5,54C 1044.08,51.1885 1022.75,56.5219 1003.5,70C 992.397,79.1001 981.897,88.9335 972,99.5C 949.513,126.984 928.18,155.317 908,184.5C 886.447,214.402 862.28,242.235 835.5,268C 788.848,305.671 735.515,320.671 675.5,313C 639.42,308.809 603.253,305.642 567,303.5C 507.849,302.435 455.683,320.602 410.5,358C 386.064,382.108 360.731,405.108 334.5,427C 308.019,446.217 278.352,456.383 245.5,457.5C 217.743,456.311 190.743,451.144 164.5,442C 113.758,423.628 65.7576,399.961 20.5,371C 15.8134,366.457 11.98,361.291 9,355.5C 4.42191,339.298 9.92191,328.631 25.5,323.5C 29.0703,324.256 29.7369,325.589 27.5,327.5C 14.3206,331.852 9.48727,340.852 13,354.5C 17.1106,363.61 23.6106,370.444 32.5,375C 74.5757,400.87 118.909,422.203 165.5,439C 191.491,447.832 218.157,452.998 245.5,454.5C 279.02,453.272 309.02,442.439 335.5,422C 359.766,401.071 383.433,379.404 406.5,357C 452.682,318.157 506.182,299.324 567,300.5C 612.86,303.803 658.693,307.469 704.5,311.5C 763.651,311.411 813.151,289.744 853,246.5C 863.374,235.128 873.374,223.461 883,211.5C 910.282,174.55 937.949,137.883 966,101.5C 981.604,82.2197 1000.44,67.053 1022.5,56C 1037.75,50.798 1053.42,49.1313 1069.5,51C 1081.3,53.4081 1093.13,55.5747 1105,57.5C 1112.94,57.4674 1119.78,54.8008 1125.5,49.5C 1127.54,48.089 1128.54,46.089 1128.5,43.5C 1130.28,32.4102 1126.62,23.7435 1117.5,17.5C 1117.5,16.1667 1117.5,14.8333 1117.5,13.5 Z"/></g>
<g><path style="opacity:0.012" fill="#6f4491" d="M 1112.5,17.5 C 1114.17,17.5 1115.83,17.5 1117.5,17.5C 1126.62,23.7435 1130.28,32.4102 1128.5,43.5C 1126.99,45.1815 1125.99,47.1815 1125.5,49.5C 1119.78,54.8008 1112.94,57.4674 1105,57.5C 1093.13,55.5747 1081.3,53.4081 1069.5,51C 1053.42,49.1313 1037.75,50.798 1022.5,56C 1000.44,67.053 981.604,82.2197 966,101.5C 937.949,137.883 910.282,174.55 883,211.5C 873.374,223.461 863.374,235.128 853,246.5C 813.151,289.744 763.651,311.411 704.5,311.5C 658.693,307.469 612.86,303.803 567,300.5C 506.182,299.324 452.682,318.157 406.5,357C 383.433,379.404 359.766,401.071 335.5,422C 309.02,442.439 279.02,453.272 245.5,454.5C 218.157,452.998 191.491,447.832 165.5,439C 118.909,422.203 74.5757,400.87 32.5,375C 23.6106,370.444 17.1106,363.61 13,354.5C 9.48727,340.852 14.3206,331.852 27.5,327.5C 31.0443,327.132 34.0443,328.132 36.5,330.5C 18.0827,330.355 11.5827,339.022 17,356.5C 19.4117,360.916 22.5783,364.749 26.5,368C 71.8039,396.651 119.804,419.984 170.5,438C 199.03,447.907 228.364,452.24 258.5,451C 280.36,448.38 300.694,441.38 319.5,430C 331.403,422.1 342.736,413.433 353.5,404C 370.865,386.967 388.531,370.301 406.5,354C 440.723,325.058 480.056,307.225 524.5,300.5C 546.793,298.598 569.126,298.098 591.5,299C 618.507,301.593 645.507,304.26 672.5,307C 694.877,309.251 717.21,308.918 739.5,306C 747.49,304.973 755.157,303.14 762.5,300.5C 789.571,292.801 813.571,279.634 834.5,261C 849.434,247.07 863.268,232.237 876,216.5C 902.487,182.191 928.487,147.524 954,112.5C 969.955,91.5432 988.788,73.7099 1010.5,59C 1030,48.5942 1050.67,45.2609 1072.5,49C 1080.57,50.3498 1088.57,52.0165 1096.5,54C 1102.57,54.8045 1108.57,54.4712 1114.5,53C 1126.18,46.5413 1128.68,37.3747 1122,25.5C 1119.23,22.2203 1116.06,19.5537 1112.5,17.5 Z"/></g>
<g><path style="opacity:0.035" fill="#652693" d="M 1086.5,45.5 C 1053.94,37.2699 1024.77,42.2699 999,60.5C 997.167,61.6667 995.333,62.8333 993.5,64C 993.833,64.3333 994.167,64.6667 994.5,65C 992.484,65.1971 990.484,66.1971 988.5,68C 989.258,69.3639 988.758,70.5305 987,71.5C 986.667,71.1667 986.333,70.8333 986,70.5C 974.331,80.1035 964.998,90.4369 958,101.5C 957.667,101.167 957.333,100.833 957,100.5C 953.862,105.271 950.362,109.771 946.5,114C 929.672,136.886 911.005,161.886 890.5,189C 891.654,189.914 891.487,190.747 890,191.5C 889.667,191.167 889.333,190.833 889,190.5C 886.533,194.6 883.699,198.434 880.5,202C 881.654,202.914 881.487,203.747 880,204.5C 879.667,204.167 879.333,203.833 879,203.5C 875.862,208.271 872.362,212.771 868.5,217C 868.833,217.333 869.167,217.667 869.5,218C 868.257,220.034 866.757,220.867 865,220.5C 863.561,222.275 862.561,224.275 862,226.5C 861,226.833 860,227.167 859,227.5C 856.906,229.921 855.24,232.588 854,235.5C 853.147,237.125 852.147,237.458 851,236.5C 832.763,258.031 810.93,274.864 785.5,287C 778.375,290.208 771.042,292.708 763.5,294.5C 732.847,301.554 701.847,303.387 670.5,300C 643.507,297.26 616.507,294.593 589.5,292C 558.947,289.691 528.947,292.191 499.5,299.5C 467.669,308.424 439.335,322.258 414.5,341C 415.654,341.914 415.487,342.747 414,343.5C 412.927,342.72 411.76,342.887 410.5,344C 410.833,344.333 411.167,344.667 411.5,345C 409.275,345.561 407.275,346.561 405.5,348C 406.258,349.364 405.758,350.531 404,351.5C 403.667,351.167 403.333,350.833 403,350.5C 402.097,351.701 400.931,352.535 399.5,353C 399.833,353.333 400.167,353.667 400.5,354C 398.859,355.129 397.859,356.629 397.5,358.5C 396.504,358.586 395.671,358.252 395,357.5C 381.833,370 368.667,382.5 355.5,395C 353.631,397.314 351.631,397.647 349.5,396C 366.024,380.898 382.357,365.565 398.5,350C 453.267,303.972 516.6,283.972 588.5,290C 620.476,293.264 652.476,296.264 684.5,299C 737.961,304.812 785.294,290.812 826.5,257C 849.562,235.283 870.396,211.783 889,186.5C 913.545,151.42 939.545,117.42 967,84.5C 981.624,68.202 998.79,55.3687 1018.5,46C 1032.33,40.5668 1046.67,38.2334 1061.5,39C 1074.58,40.6851 1087.58,42.8518 1100.5,45.5C 1115.27,42.4912 1117.27,35.6578 1106.5,25C 1058.87,7.18536 1014.87,13.5187 974.5,44C 966.662,51.005 958.996,58.1717 951.5,65.5C 959.801,54.1988 969.467,44.1988 980.5,35.5C 993.478,26.278 1007.81,19.9447 1023.5,16.5C 1045.19,12.3799 1066.86,12.5466 1088.5,17C 1098.19,18.3349 1106.69,22.1683 1114,28.5C 1118.53,37.6004 1116.03,43.7671 1106.5,47C 1099.76,47.4867 1093.1,46.9867 1086.5,45.5 Z"/></g>
<g><path style="opacity:0.012" fill="#6f4591" d="M 970.5,34.5 C 962.806,42.5265 955.139,50.5265 947.5,58.5C 938.449,68.2399 929.615,78.2399 921,88.5C 892.361,127.629 863.195,166.295 833.5,204.5C 825.454,213.88 816.454,222.213 806.5,229.5C 806.062,229.565 805.728,229.399 805.5,229C 814,221.833 821.833,214 829,205.5C 838.76,192.983 848.76,180.65 859,168.5C 881.936,136.297 905.603,104.631 930,73.5C 942.426,59.2382 955.926,46.2382 970.5,34.5 Z"/></g>
<g><path style="opacity:0.008" fill="#9a00d9" d="M 1128.5,43.5 C 1128.54,46.089 1127.54,48.089 1125.5,49.5C 1125.99,47.1815 1126.99,45.1815 1128.5,43.5 Z"/></g>
<g><path style="opacity:0.02" fill="#662395" d="M 947.5,58.5 C 916.608,97.9511 886.441,137.951 857,178.5C 849.671,187.661 841.837,196.327 833.5,204.5C 863.195,166.295 892.361,127.629 921,88.5C 929.615,78.2399 938.449,68.2399 947.5,58.5 Z"/></g>
<g><path style="opacity:0.02" fill="#642391" d="M 1112.5,17.5 C 1116.06,19.5537 1119.23,22.2203 1122,25.5C 1128.68,37.3747 1126.18,46.5413 1114.5,53C 1108.57,54.4712 1102.57,54.8045 1096.5,54C 1088.57,52.0165 1080.57,50.3498 1072.5,49C 1050.67,45.2609 1030,48.5942 1010.5,59C 988.788,73.7099 969.955,91.5432 954,112.5C 928.487,147.524 902.487,182.191 876,216.5C 863.268,232.237 849.434,247.07 834.5,261C 813.571,279.634 789.571,292.801 762.5,300.5C 743.273,305.007 723.773,307.341 704,307.5C 658.626,304.162 613.292,300.496 568,296.5C 553.287,296.961 538.787,298.294 524.5,300.5C 480.056,307.225 440.723,325.058 406.5,354C 388.531,370.301 370.865,386.967 353.5,404C 342.736,413.433 331.403,422.1 319.5,430C 300.694,441.38 280.36,448.38 258.5,451C 228.364,452.24 199.03,447.907 170.5,438C 119.804,419.984 71.8039,396.651 26.5,368C 22.5783,364.749 19.4117,360.916 17,356.5C 11.5827,339.022 18.0827,330.355 36.5,330.5C 38.2303,331.026 39.5637,332.026 40.5,333.5C 20.0419,332.115 13.8752,340.782 22,359.5C 25.5338,363.369 29.3672,366.869 33.5,370C 73.8079,394.653 116.141,415.32 160.5,432C 193.371,444.701 227.371,450.034 262.5,448C 296.782,442.028 326.115,426.862 350.5,402.5C 366.78,388.52 382.447,373.853 397.5,358.5C 445.666,315.435 502.333,294.435 567.5,295.5C 577.855,295.575 588.188,296.075 598.5,297C 626.146,299.887 653.812,302.553 681.5,305C 736.57,311.324 785.57,297.324 828.5,263C 840,252.833 850.833,242 861,230.5C 893.151,190.686 924.151,150.02 954,108.5C 966.129,92.7035 979.963,78.5368 995.5,66C 1013.05,52.7037 1032.88,45.537 1055,44.5C 1070.91,46.3824 1086.74,48.7157 1102.5,51.5C 1120.57,51.3423 1126.07,43.0089 1119,26.5C 1112.03,20.0959 1103.86,15.9292 1094.5,14C 1064,6.73625 1034,8.23625 1004.5,18.5C 1010.36,14.8168 1016.69,11.9834 1023.5,10C 1053.96,2.68137 1083.63,5.18137 1112.5,17.5 Z"/></g>
<g><path style="opacity:0.035" fill="#662793" d="M 831.5,216.5 C 831.938,216.435 832.272,216.601 832.5,217C 820.532,230.638 807.032,242.471 792,252.5C 791.667,251.833 791.333,251.167 791,250.5C 790.329,251.252 789.496,251.586 788.5,251.5C 792.35,248.739 796.017,245.739 799.5,242.5C 811.017,234.993 821.684,226.326 831.5,216.5 Z"/></g>
<g><path style="opacity:0.024" fill="#610394" d="M 799.5,242.5 C 796.017,245.739 792.35,248.739 788.5,251.5C 771.539,261.152 753.539,267.818 734.5,271.5C 719.876,273.203 705.21,273.703 690.5,273C 658.91,270.193 627.41,267.027 596,263.5C 570.297,261.703 544.463,262.537 518.5,266C 508.195,267.359 498.195,269.526 488.5,272.5C 464.352,277.748 442.018,287.081 421.5,300.5C 416.167,303.5 410.833,306.5 405.5,309.5C 420.679,296.352 437.679,286.019 456.5,278.5C 502.177,262.415 549.177,256.582 597.5,261C 632.945,264.827 668.445,267.994 704,270.5C 724.672,270.597 744.505,266.93 763.5,259.5C 775.976,254.93 787.976,249.263 799.5,242.5 Z"/></g>
<g><path style="opacity:0.02" fill="#5d2087" d="M 736.5,265.5 C 745.508,263.665 754.508,261.665 763.5,259.5C 744.505,266.93 724.672,270.597 704,270.5C 668.445,267.994 632.945,264.827 597.5,261C 549.177,256.582 502.177,262.415 456.5,278.5C 465.833,273.275 475.833,269.608 486.5,267.5C 525.389,258.563 564.722,256.063 604.5,260C 631.151,262.813 657.818,265.48 684.5,268C 696.833,268.667 709.167,268.667 721.5,268C 726.728,267.704 731.728,266.871 736.5,265.5 Z"/></g>
<g><path style="opacity:0.031" fill="#64318d" d="M 734.5,271.5 C 729.398,272.918 724.064,273.751 718.5,274C 708.167,274.667 697.833,274.667 687.5,274C 664.796,272.033 642.129,269.7 619.5,267C 575.512,261.483 531.845,263.316 488.5,272.5C 498.195,269.526 508.195,267.359 518.5,266C 544.463,262.537 570.297,261.703 596,263.5C 627.41,267.027 658.91,270.193 690.5,273C 705.21,273.703 719.876,273.203 734.5,271.5 Z"/></g>
<g><path style="opacity:0.016" fill="#6c2e99" d="M 736.5,265.5 C 731.728,266.871 726.728,267.704 721.5,268C 709.167,268.667 696.833,268.667 684.5,268C 657.818,265.48 631.151,262.813 604.5,260C 564.722,256.063 525.389,258.563 486.5,267.5C 489.906,265.891 493.573,264.724 497.5,264C 531.176,256.639 565.176,254.639 599.5,258C 631.114,261.587 662.781,264.587 694.5,267C 708.534,267.498 722.534,266.998 736.5,265.5 Z"/></g>
<g><path style="opacity:0.035" fill="#662693" d="M 788.5,251.5 C 788.918,252.222 789.584,252.722 790.5,253C 759.411,271.52 725.745,279.187 689.5,276C 662.464,273.7 635.464,271.033 608.5,268C 554.054,261.129 501.388,267.796 450.5,288C 441.763,292.118 433.263,296.618 425,301.5C 424.667,300.833 424.333,300.167 424,299.5C 423.329,300.252 422.496,300.586 421.5,300.5C 442.018,287.081 464.352,277.748 488.5,272.5C 531.845,263.316 575.512,261.483 619.5,267C 642.129,269.7 664.796,272.033 687.5,274C 697.833,274.667 708.167,274.667 718.5,274C 724.064,273.751 729.398,272.918 734.5,271.5C 753.539,267.818 771.539,261.152 788.5,251.5 Z"/></g>
<g><path style="opacity:0.043" fill="#621293" d="M 397.5,358.5 C 382.447,373.853 366.78,388.52 350.5,402.5C 349.508,402.672 348.842,402.338 348.5,401.5C 349.463,400.637 349.463,399.97 348.5,399.5C 347.186,400.313 346.019,401.313 345,402.5C 344.667,401.833 344.333,401.167 344,400.5C 307.795,436.01 264.628,449.176 214.5,440C 179.012,433.059 145.012,421.726 112.5,406C 85.5358,393.189 59.5358,378.856 34.5,363C 28.2975,358.719 25.7975,352.886 27,345.5C 32.7133,339.723 39.2133,338.889 46.5,343C 89.8992,370.031 135.899,391.698 184.5,408C 206.568,415.567 229.235,419.234 252.5,419C 273.071,416.923 291.737,409.923 308.5,398C 332.153,379.641 354.486,359.641 375.5,338C 383.877,330.621 392.544,323.621 401.5,317C 400.255,316.209 398.922,315.709 397.5,315.5C 400.47,313.857 403.137,311.857 405.5,309.5C 410.833,306.5 416.167,303.5 421.5,300.5C 422.496,300.586 423.329,300.252 424,299.5C 424.333,300.167 424.667,300.833 425,301.5C 433.263,296.618 441.763,292.118 450.5,288C 501.388,267.796 554.054,261.129 608.5,268C 635.464,271.033 662.464,273.7 689.5,276C 725.745,279.187 759.411,271.52 790.5,253C 789.584,252.722 788.918,252.222 788.5,251.5C 789.496,251.586 790.329,251.252 791,250.5C 791.333,251.167 791.667,251.833 792,252.5C 807.032,242.471 820.532,230.638 832.5,217C 832.272,216.601 831.938,216.435 831.5,216.5C 843.535,203.965 855.035,190.965 866,177.5C 888.385,148.115 910.385,118.449 932,88.5C 938.365,80.6421 944.865,72.9754 951.5,65.5C 958.996,58.1717 966.662,51.005 974.5,44C 1014.87,13.5187 1058.87,7.18536 1106.5,25C 1117.27,35.6578 1115.27,42.4912 1100.5,45.5C 1087.58,42.8518 1074.58,40.6851 1061.5,39C 1046.67,38.2334 1032.33,40.5668 1018.5,46C 998.79,55.3687 981.624,68.202 967,84.5C 939.545,117.42 913.545,151.42 889,186.5C 870.396,211.783 849.562,235.283 826.5,257C 785.294,290.812 737.961,304.812 684.5,299C 652.476,296.264 620.476,293.264 588.5,290C 516.6,283.972 453.267,303.972 398.5,350C 382.357,365.565 366.024,380.898 349.5,396C 351.631,397.647 353.631,397.314 355.5,395C 368.667,382.5 381.833,370 395,357.5C 395.671,358.252 396.504,358.586 397.5,358.5 Z"/></g>
<g><path style="opacity:0.055" fill="#652592" d="M 1042.5,18.5 C 1063.13,17.2441 1083.13,20.0774 1102.5,27C 1107.75,30.4625 1108.75,34.7958 1105.5,40C 1103.13,41.036 1100.63,41.536 1098,41.5C 1084,38.334 1069.84,36.334 1055.5,35.5C 1032.9,35.7297 1012.57,42.563 994.5,56C 973.491,73.5035 954.824,93.0035 938.5,114.5C 917.476,143.895 895.976,172.895 874,201.5C 856.882,222.952 838.049,242.785 817.5,261C 784.178,285.661 746.678,297.494 705,296.5C 667.735,294.557 630.568,291.39 593.5,287C 539.131,281.874 487.798,291.874 439.5,317C 421.673,327.898 405.007,340.232 389.5,354C 373.542,369.324 357.542,384.658 341.5,400C 325.879,413.159 308.546,423.825 289.5,432C 265.618,439.932 241.285,441.599 216.5,437C 183.87,431.012 152.536,421.012 122.5,407C 93.2595,394.05 65.2595,379.05 38.5,362C 33.441,358.388 31.2744,353.554 32,347.5C 34.6534,344.806 37.8201,343.973 41.5,345C 44.9927,345.942 48.326,347.275 51.5,349C 94.0292,375.095 139.029,396.095 186.5,412C 208.874,419.785 231.874,423.118 255.5,422C 273.889,419.302 290.889,412.968 306.5,403C 331.19,384.783 354.19,364.449 375.5,342C 396.231,322.796 419.231,306.796 444.5,294C 496.02,272.017 549.687,264.35 605.5,271C 631.499,273.667 657.499,276.333 683.5,279C 743.719,284.825 793.885,265.325 834,220.5C 868.211,178.401 901.211,135.401 933,91.5C 948.538,71.6284 966.371,54.1284 986.5,39C 1003.7,27.8907 1022.36,21.0574 1042.5,18.5 Z"/></g>
<g><path style="opacity:0.059" fill="#631994" d="M 1043.5,22.5 C 1059.54,22.2268 1075.54,23.7268 1091.5,27C 1094.7,27.8485 1097.53,29.3485 1100,31.5C 1100.72,33.1124 1100.55,34.6124 1099.5,36C 1097.16,36.1972 1094.99,36.6972 1093,37.5C 1055.66,25.308 1021.49,31.1413 990.5,55C 974.333,68.5 959.5,83.3333 946,99.5C 915.817,141.354 884.483,182.354 852,222.5C 838.07,237.434 823.237,251.268 807.5,264C 769.885,287.446 728.885,296.446 684.5,291C 653.124,289.289 621.957,286.123 591,281.5C 515.12,276.127 448.62,298.293 391.5,348C 374.024,364.898 356.358,381.565 338.5,398C 304.066,429.472 263.732,441.139 217.5,433C 200.168,430.4 183.168,426.4 166.5,421C 124.187,405.676 83.8535,386.342 45.5,363C 42.6238,360.825 40.1238,358.325 38,355.5C 37.2571,353.559 37.4238,351.726 38.5,350C 41.594,349.348 44.594,349.682 47.5,351C 81.225,371.029 116.225,388.696 152.5,404C 177.539,413.569 203.205,420.902 229.5,426C 247.812,428.384 265.479,426.05 282.5,419C 299.813,411.015 315.813,401.015 330.5,389C 345.773,375.73 360.439,361.73 374.5,347C 397.056,325.713 422.389,308.38 450.5,295C 496.027,276.685 542.86,270.185 591,275.5C 593.098,275.552 595.264,275.218 597.5,274.5C 627.761,277.362 657.928,280.696 688,284.5C 745.177,287.416 793.51,268.083 833,226.5C 867.865,184.307 901.198,140.974 933,96.5C 944.093,82.7367 955.926,69.5701 968.5,57C 983.412,42.8752 1000.74,32.8752 1020.5,27C 1028.26,25.2657 1035.93,23.7657 1043.5,22.5 Z"/></g>
<g><path style="opacity:0.063" fill="#630f98" d="M 1007.5,36.5 C 1008.24,36.369 1008.91,36.5357 1009.5,37C 998.5,45.3333 987.5,53.6667 976.5,62C 954.449,83.3754 934.616,106.542 917,131.5C 897.102,159.401 876.435,186.734 855,213.5C 849.652,219.015 844.152,224.348 838.5,229.5C 838.167,229.167 837.833,228.833 837.5,228.5C 868.627,189.208 898.794,149.208 928,108.5C 937.333,97.1667 946.667,85.8333 956,74.5C 966.692,62.1306 978.859,51.6306 992.5,43C 997.367,40.2259 1002.37,38.0593 1007.5,36.5 Z"/></g>
<g><path style="opacity:0.008" fill="#460872" d="M 443.5,276.5 C 427.115,285.98 411.448,295.814 396.5,306C 397.258,307.364 396.758,308.531 395,309.5C 393.16,308.167 392.66,308.334 393.5,310C 391.249,312.758 388.582,314.925 385.5,316.5C 376.059,324.099 366.726,331.933 357.5,340C 345.105,353.064 332.105,365.397 318.5,377C 318.728,377.399 319.062,377.565 319.5,377.5C 317.492,379.268 315.326,380.934 313,382.5C 311.16,381.167 310.66,381.334 311.5,383C 310.747,384.487 309.914,384.654 309,383.5C 300.764,390.54 290.93,395.54 279.5,398.5C 291.103,392.749 302.103,385.916 312.5,378C 332.833,359 353.167,340 373.5,321C 381.5,314.667 389.5,308.333 397.5,302C 411.804,291.681 427.137,283.181 443.5,276.5 Z"/></g>
<g><path style="opacity:0.024" fill="#610294" d="M 397.5,358.5 C 397.859,356.629 398.859,355.129 400.5,354C 400.167,353.667 399.833,353.333 399.5,353C 400.931,352.535 402.097,351.701 403,350.5C 403.333,350.833 403.667,351.167 404,351.5C 405.758,350.531 406.258,349.364 405.5,348C 407.275,346.561 409.275,345.561 411.5,345C 411.167,344.667 410.833,344.333 410.5,344C 411.76,342.887 412.927,342.72 414,343.5C 415.487,342.747 415.654,341.914 414.5,341C 439.335,322.258 467.669,308.424 499.5,299.5C 532.546,292.639 565.879,290.806 599.5,294C 622.507,296.267 645.507,298.601 668.5,301C 690.838,302.938 713.172,302.938 735.5,301C 745.208,299.896 754.541,297.729 763.5,294.5C 771.042,292.708 778.375,290.208 785.5,287C 810.93,274.864 832.763,258.031 851,236.5C 852.147,237.458 853.147,237.125 854,235.5C 855.24,232.588 856.906,229.921 859,227.5C 860,227.167 861,226.833 862,226.5C 862.561,224.275 863.561,222.275 865,220.5C 866.757,220.867 868.257,220.034 869.5,218C 869.167,217.667 868.833,217.333 868.5,217C 872.362,212.771 875.862,208.271 879,203.5C 879.333,203.833 879.667,204.167 880,204.5C 881.487,203.747 881.654,202.914 880.5,202C 883.699,198.434 886.533,194.6 889,190.5C 889.333,190.833 889.667,191.167 890,191.5C 891.487,190.747 891.654,189.914 890.5,189C 911.005,161.886 929.672,136.886 946.5,114C 950.362,109.771 953.862,105.271 957,100.5C 957.333,100.833 957.667,101.167 958,101.5C 964.998,90.4369 974.331,80.1035 986,70.5C 986.333,70.8333 986.667,71.1667 987,71.5C 988.758,70.5305 989.258,69.3639 988.5,68C 990.484,66.1971 992.484,65.1971 994.5,65C 994.167,64.6667 993.833,64.3333 993.5,64C 995.333,62.8333 997.167,61.6667 999,60.5C 1024.77,42.2699 1053.94,37.2699 1086.5,45.5C 1091.16,47.5769 1096.16,48.5769 1101.5,48.5C 1110.58,49.142 1116.24,45.142 1118.5,36.5C 1116.84,28.0076 1111.84,22.5076 1103.5,20C 1082.67,13.2297 1061.34,10.8963 1039.5,13C 1033.87,13.4315 1028.54,14.5982 1023.5,16.5C 1007.81,19.9447 993.478,26.278 980.5,35.5C 987.448,28.3584 995.448,22.6918 1004.5,18.5C 1034,8.23625 1064,6.73625 1094.5,14C 1103.86,15.9292 1112.03,20.0959 1119,26.5C 1126.07,43.0089 1120.57,51.3423 1102.5,51.5C 1086.74,48.7157 1070.91,46.3824 1055,44.5C 1032.88,45.537 1013.05,52.7037 995.5,66C 979.963,78.5368 966.129,92.7035 954,108.5C 924.151,150.02 893.151,190.686 861,230.5C 850.833,242 840,252.833 828.5,263C 785.57,297.324 736.57,311.324 681.5,305C 653.812,302.553 626.146,299.887 598.5,297C 588.188,296.075 577.855,295.575 567.5,295.5C 502.333,294.435 445.666,315.435 397.5,358.5 Z"/></g>
<g><path style="opacity:0.031" fill="#64318d" d="M 763.5,294.5 C 754.541,297.729 745.208,299.896 735.5,301C 713.172,302.938 690.838,302.938 668.5,301C 645.507,298.601 622.507,296.267 599.5,294C 565.879,290.806 532.546,292.639 499.5,299.5C 528.947,292.191 558.947,289.691 589.5,292C 616.507,294.593 643.507,297.26 670.5,300C 701.847,303.387 732.847,301.554 763.5,294.5 Z"/></g>
<g><path style="opacity:0.016" fill="#7229a7" d="M 762.5,300.5 C 755.157,303.14 747.49,304.973 739.5,306C 717.21,308.918 694.877,309.251 672.5,307C 645.507,304.26 618.507,301.593 591.5,299C 569.126,298.098 546.793,298.598 524.5,300.5C 538.787,298.294 553.287,296.961 568,296.5C 613.292,300.496 658.626,304.162 704,307.5C 723.773,307.341 743.273,305.007 762.5,300.5 Z"/></g>
<g><path style="opacity:0.063" fill="#630f98" d="M 451.5,299.5 C 452.645,300.793 452.311,301.959 450.5,303C 431.124,313.015 413.124,325.015 396.5,339C 378.865,354.967 361.531,371.301 344.5,388C 330.801,401.035 315.468,411.701 298.5,420C 296.099,421.039 293.766,421.206 291.5,420.5C 322.896,400.96 351.229,377.46 376.5,350C 390.595,337.125 405.595,325.458 421.5,315C 431.467,309.518 441.467,304.352 451.5,299.5 Z"/></g>
<g><path style="opacity:0.012" fill="#734796" d="M 385.5,316.5 C 370.033,331.8 354.366,346.966 338.5,362C 332.136,367.175 325.803,372.342 319.5,377.5C 319.062,377.565 318.728,377.399 318.5,377C 332.105,365.397 345.105,353.064 357.5,340C 366.726,331.933 376.059,324.099 385.5,316.5 Z"/></g>
<g><path style="opacity:0.004" fill="#000000" d="M 23.5,319.5 C 23.5,320.167 23.5,320.833 23.5,321.5C 18.1062,322.114 13.6062,324.447 10,328.5C 0.231338,347.316 4.06467,362.816 21.5,375C 55.5268,396.516 91.1935,415.183 128.5,431C 158.862,443.919 190.195,453.086 222.5,458.5C 219.167,458.5 215.833,458.5 212.5,458.5C 162.421,447.524 114.754,429.69 69.5,405C 51.3407,395.424 33.674,385.09 16.5,374C 2.56764,361.678 -0.932361,346.845 6,329.5C 10.267,323.449 16.1003,320.116 23.5,319.5 Z"/></g>
<g><path style="opacity:0.008" fill="#370461" d="M 43.5,326.5 C 47.3621,327.428 51.0288,328.928 54.5,331C 76.2493,344.541 98.5827,357.041 121.5,368.5C 108.29,362.896 95.2904,356.73 82.5,350C 69.1045,342.644 56.1045,334.81 43.5,326.5 Z"/></g>
<g><path style="opacity:0.035" fill="#662892" d="M 397.5,315.5 C 398.922,315.709 400.255,316.209 401.5,317C 392.544,323.621 383.877,330.621 375.5,338C 354.486,359.641 332.153,379.641 308.5,398C 291.737,409.923 273.071,416.923 252.5,419C 229.235,419.234 206.568,415.567 184.5,408C 135.899,391.698 89.8992,370.031 46.5,343C 39.2133,338.889 32.7133,339.723 27,345.5C 25.7975,352.886 28.2975,358.719 34.5,363C 59.5358,378.856 85.5358,393.189 112.5,406C 145.012,421.726 179.012,433.059 214.5,440C 264.628,449.176 307.795,436.01 344,400.5C 344.333,401.167 344.667,401.833 345,402.5C 346.019,401.313 347.186,400.313 348.5,399.5C 349.463,399.97 349.463,400.637 348.5,401.5C 346.862,402.657 345.196,403.824 343.5,405C 344.258,406.364 343.758,407.531 342,408.5C 341.667,408.167 341.333,407.833 341,407.5C 327.624,419.376 311.79,429.21 293.5,437C 288.403,439.385 283.069,440.885 277.5,441.5C 254.818,445.578 232.152,445.411 209.5,441C 198.444,438.652 187.444,436.152 176.5,433.5C 127.509,417.672 81.1761,396.172 37.5,369C 30.9452,365.445 26.1119,360.279 23,353.5C 20.4588,345.079 23.2921,339.579 31.5,337C 36.3278,336.371 40.9945,337.038 45.5,339C 85.8079,363.653 128.141,384.32 172.5,401C 195.911,409.728 220.077,414.895 245,416.5C 270.025,415.331 292.192,406.997 311.5,391.5C 322.319,383.249 332.985,374.749 343.5,366C 361.127,348.532 379.127,331.698 397.5,315.5 Z"/></g>
<g><path style="opacity:0.008" fill="#370461" d="M 121.5,368.5 C 125.582,369.376 129.249,371.043 132.5,373.5C 128.418,372.624 124.751,370.957 121.5,368.5 Z"/></g>
<g><path style="opacity:0.024" fill="#610394" d="M 40.5,333.5 C 79.5741,356.704 120.241,376.704 162.5,393.5C 190.51,405.667 219.843,412.167 250.5,413C 260.313,412.378 269.646,410.211 278.5,406.5C 289.819,402.343 300.819,397.343 311.5,391.5C 292.192,406.997 270.025,415.331 245,416.5C 220.077,414.895 195.911,409.728 172.5,401C 128.141,384.32 85.8079,363.653 45.5,339C 40.9945,337.038 36.3278,336.371 31.5,337C 23.2921,339.579 20.4588,345.079 23,353.5C 26.1119,360.279 30.9452,365.445 37.5,369C 81.1761,396.172 127.509,417.672 176.5,433.5C 203.908,443.248 232.241,447.081 261.5,445C 267.13,444.568 272.463,443.402 277.5,441.5C 283.069,440.885 288.403,439.385 293.5,437C 311.79,429.21 327.624,419.376 341,407.5C 341.333,407.833 341.667,408.167 342,408.5C 343.758,407.531 344.258,406.364 343.5,405C 345.196,403.824 346.862,402.657 348.5,401.5C 348.842,402.338 349.508,402.672 350.5,402.5C 326.115,426.862 296.782,442.028 262.5,448C 227.371,450.034 193.371,444.701 160.5,432C 116.141,415.32 73.8079,394.653 33.5,370C 29.3672,366.869 25.5338,363.369 22,359.5C 13.8752,340.782 20.0419,332.115 40.5,333.5 Z"/></g>
<g><path style="opacity:0.02" fill="#61228e" d="M 162.5,393.5 C 177.337,398.167 192.337,402.333 207.5,406C 231.165,411.622 254.831,411.789 278.5,406.5C 269.646,410.211 260.313,412.378 250.5,413C 219.843,412.167 190.51,405.667 162.5,393.5 Z"/></g>
<g><path style="opacity:0.031" fill="#64318d" d="M 176.5,433.5 C 187.444,436.152 198.444,438.652 209.5,441C 232.152,445.411 254.818,445.578 277.5,441.5C 272.463,443.402 267.13,444.568 261.5,445C 232.241,447.081 203.908,443.248 176.5,433.5 Z"/></g>
</svg>
