<?xml version="1.0" encoding="UTF-8"?> <svg xmlns="http://www.w3.org/2000/svg" id="Logo_SVG" data-name="Logo SVG" width="2003.636" height="448.65" viewBox="0 0 2003.636 448.65"><g id="Group_4414" data-name="Group 4414" transform="translate(0 0)"><path id="Subtraction_2" data-name="Subtraction 2" d="M78.868,429.576A221.462,221.462,0,0,1,0,415.2V252.67a91.114,91.114,0,0,0,169.995-45.617,90.04,90.04,0,0,0-9.443-40.379V0c1.691.668,3.349,1.347,4.932,2.017a222.54,222.54,0,0,1,37.8,20.517,223.738,223.738,0,0,1,60.1,60.106,222.565,222.565,0,0,1,20.517,37.8,223.261,223.261,0,0,1,0,173.231,222.48,222.48,0,0,1-20.517,37.8,223.76,223.76,0,0,1-60.1,60.1,221.458,221.458,0,0,1-124.414,38Z" transform="translate(301.389 429.576) rotate(180)" fill="#f34e5e"></path><path id="Subtraction_4" data-name="Subtraction 4" d="M78.868,429.576A221.463,221.463,0,0,1,0,415.2V252.67a91.114,91.114,0,0,0,169.994-45.617,90.041,90.041,0,0,0-9.443-40.379V0c1.691.668,3.349,1.348,4.932,2.017a222.539,222.539,0,0,1,37.8,20.517,223.733,223.733,0,0,1,60.1,60.106,222.56,222.56,0,0,1,20.517,37.8,223.259,223.259,0,0,1,0,173.231,222.486,222.486,0,0,1-20.517,37.8,223.761,223.761,0,0,1-60.1,60.1,221.456,221.456,0,0,1-124.413,38Z" transform="translate(159.17 19.074)" fill="#f77321"></path></g><g id="Group_4411" data-name="Group 4411" transform="translate(550.056 142.308)"><path id="Path_12" data-name="Path 12" d="M97.072,132.105A89.44,89.44,0,0,1,30.5,103.377,97.229,97.229,0,0,1,11.3,72.685,98.891,98.891,0,0,1,4.485,36.109,100.842,100.842,0,0,1,11.3-1.185,95.623,95.623,0,0,1,30.682-31.876,91.91,91.91,0,0,1,60.288-52.931,89.429,89.429,0,0,1,97.431-60.6a88.2,88.2,0,0,1,36.963,7.674,92.474,92.474,0,0,1,29.427,21.055A95.623,95.623,0,0,1,183.2-1.185a100.842,100.842,0,0,1,6.818,37.294A98.891,98.891,0,0,1,183.2,72.685,97.23,97.23,0,0,1,164,103.377a89.9,89.9,0,0,1-29.427,21.055A90.307,90.307,0,0,1,97.072,132.105ZM29.247,36.462A77.741,77.741,0,0,0,38.4,74.053,70.957,70.957,0,0,0,62.98,100.775a62.312,62.312,0,0,0,34.092,9.8,61.5,61.5,0,0,0,34.092-9.975,73.071,73.071,0,0,0,24.762-27.257,77.872,77.872,0,0,0,9.33-37.591,77.57,77.57,0,0,0-9.33-37.768A73.434,73.434,0,0,0,131.164-29.1a61.5,61.5,0,0,0-34.092-9.975A59.135,59.135,0,0,0,63.159-28.742,77.52,77.52,0,0,0,38.577-1.485Q29.247,15.441,29.247,36.462Zm358.865,92.054h-24.4V24.754q0-32.8-9.689-47.956t-30.5-15.154a63.209,63.209,0,0,0-28.35,6.942,80.377,80.377,0,0,0-24.582,18.868,72.3,72.3,0,0,0-15.252,27.234V128.517h-24.4V-57.734h22.25v42.447a83.522,83.522,0,0,1,19.738-23.73A93.369,93.369,0,0,1,300.548-54.9,91.341,91.341,0,0,1,332.487-60.6q15.431,0,26.2,5.708A44.17,44.17,0,0,1,375.91-38.661q6.46,10.528,9.33,25.336a174.023,174.023,0,0,1,2.871,33Zm133.139,3.589a90.307,90.307,0,0,1-37.5-7.674A92.638,92.638,0,0,1,453.963,103.2a98.718,98.718,0,0,1-26.735-68.159q0-26.41,11.843-48.18a90.233,90.233,0,0,1,33.016-34.616Q493.259-60.6,520.891-60.6q26.2,0,46.294,12.022a74.29,74.29,0,0,1,29.786,32.477L573.286-8.57A56.855,56.855,0,0,0,551.216-31a62.321,62.321,0,0,0-31.4-8.074,63.17,63.17,0,0,0-34.092,9.619A69.9,69.9,0,0,0,461.141-3.089q-9.151,16.746-9.151,38.127a78.283,78.283,0,0,0,9.331,38.124,74.937,74.937,0,0,0,24.762,27.257,60.716,60.716,0,0,0,34.092,10.155,65.479,65.479,0,0,0,23.506-4.306A64.793,64.793,0,0,0,563.417,94.6q8.433-7.357,11.3-15.969l24.044,7.177a61.545,61.545,0,0,1-16.687,23.865A84.939,84.939,0,0,1,554.8,126.184,93.821,93.821,0,0,1,521.25,132.105Zm193.787,0a89.44,89.44,0,0,1-66.569-28.729,97.227,97.227,0,0,1-19.2-30.691,98.891,98.891,0,0,1-6.818-36.576,100.841,100.841,0,0,1,6.818-37.294,95.622,95.622,0,0,1,19.379-30.691,91.909,91.909,0,0,1,29.606-21.055A89.429,89.429,0,0,1,715.4-60.6a88.2,88.2,0,0,1,36.963,7.674,92.474,92.474,0,0,1,29.427,21.055A95.625,95.625,0,0,1,801.165-1.185a100.844,100.844,0,0,1,6.818,37.294,98.893,98.893,0,0,1-6.818,36.576,97.232,97.232,0,0,1-19.2,30.691,89.9,89.9,0,0,1-29.427,21.055A90.307,90.307,0,0,1,715.037,132.105ZM647.212,36.462a77.74,77.74,0,0,0,9.151,37.591,70.956,70.956,0,0,0,24.582,26.721,62.312,62.312,0,0,0,34.092,9.8,61.5,61.5,0,0,0,34.092-9.975,73.071,73.071,0,0,0,24.762-27.257,77.872,77.872,0,0,0,9.331-37.591,77.57,77.57,0,0,0-9.331-37.768A73.434,73.434,0,0,0,749.129-29.1a61.5,61.5,0,0,0-34.092-9.975,59.135,59.135,0,0,0-33.913,10.331A77.52,77.52,0,0,0,656.542-1.485Q647.212,15.441,647.212,36.462Z" transform="translate(-4.485 63.557)" fill="#f34e5e"></path><path id="Path_13" data-name="Path 13" d="M117.617,129.808q-21.51,0-37.907-9.59A68.184,68.184,0,0,1,54.145,94.237V201.39H6.893V-56.73H48.15v31.7a78.087,78.087,0,0,1,26.8-25.281q16.221-9.243,37.025-9.243a80.292,80.292,0,0,1,34.381,7.322,83.507,83.507,0,0,1,27.328,20.4,97.412,97.412,0,0,1,18.16,29.992A100.4,100.4,0,0,1,198.368,34.6q0,26.5-10.4,48.125T159.4,117.08Q141.243,129.808,117.617,129.808Zm-15.868-40.2a42.832,42.832,0,0,0,19.747-4.5,48.777,48.777,0,0,0,15.339-12.278,54.482,54.482,0,0,0,9.873-17.642,63.538,63.538,0,0,0,3.35-20.582,58.623,58.623,0,0,0-3.7-21.1A51.177,51.177,0,0,0,135.6-3.613,50.834,50.834,0,0,0,119.2-15.2a49.371,49.371,0,0,0-20.276-4.152,43.755,43.755,0,0,0-13.576,2.234,55.939,55.939,0,0,0-13.223,6.358A52.222,52.222,0,0,0,61.021-1.137a34.53,34.53,0,0,0-6.876,12.028V53.784A67.692,67.692,0,0,0,65.6,72.041a52.992,52.992,0,0,0,16.75,12.918A43.756,43.756,0,0,0,101.749,89.609Zm116.013-17.29q0-17.769,10.05-31.182t28.034-20.73q17.984-7.317,41.257-7.317a162.235,162.235,0,0,1,23.626,1.763,80.967,80.967,0,0,1,20.8,5.642V10.665q0-17.312-10.4-26.662t-30.855-9.35a79.851,79.851,0,0,0-28.915,5.289A146.21,146.21,0,0,0,242.446-4.542L227.283-35.573a150.441,150.441,0,0,1,37.554-17.984,134.808,134.808,0,0,1,40.375-5.995q39.494,0,61.533,19.469t22.039,55.618V73.592q0,7.3,2.645,10.43t8.639,3.824v38.436q-6.347,1.058-11.46,1.763a64.958,64.958,0,0,1-8.639.705q-14.1,0-21.334-6.347a26.939,26.939,0,0,1-8.992-15.515l-1.058-9.521a80.78,80.78,0,0,1-29.973,23.978,85.3,85.3,0,0,1-36.673,8.463q-18.336,0-32.97-7.491a57.534,57.534,0,0,1-22.921-20.557A53.81,53.81,0,0,1,217.762,72.319ZM332.717,81.5a48.6,48.6,0,0,0,6.347-8.251,14.982,14.982,0,0,0,2.468-7.562V47.459A97.135,97.135,0,0,0,323.2,42.131a99.575,99.575,0,0,0-18.689-1.89q-18.336,0-30.149,7.736T262.545,68.435A24.2,24.2,0,0,0,266.424,81.5a27.886,27.886,0,0,0,11.284,9.97,38.325,38.325,0,0,0,17.631,3.782,57.263,57.263,0,0,0,20.8-3.953A51.7,51.7,0,0,0,332.717,81.5Zm96.971,80.751q6.347,1.41,11.813,2.468a50.372,50.372,0,0,0,9.345,1.058,17.915,17.915,0,0,0,11.108-3.328q4.408-3.328,8.639-11.843t8.816-23.8L406.416-56.73H455.43L505.15,78.815,548.876-56.73h45.136L516.434,163.224a67.23,67.23,0,0,1-12.871,22.24,61.229,61.229,0,0,1-21.51,15.774,69.244,69.244,0,0,1-28.739,5.794,72.988,72.988,0,0,1-11.284-.882,84.818,84.818,0,0,1-12.342-3Z" transform="translate(859.567 59.551)" fill="#f77321"></path></g></svg> 